{"glyphs":{"$":{"x_min":0,"x_max":615,"ha":615,"o":"m 321 -13 l 314 -102 l 266 -99 l 273 -14 q 192 -13 132 5 q 71 23 44 51 q 35 73 35 98 q 35 124 39 148 q 50 207 76 240 l 85 240 q 84 234 84 227 q 84 159 135 102 q 186 45 277 37 l 294 264 l 174 320 q 105 351 74 407 q 49 451 49 504 q 49 612 122 668 q 183 714 284 714 q 301 714 328 713 l 334 788 l 382 787 l 376 710 q 418 707 453 704 l 531 704 l 509 541 l 499 541 q 499 616 426 648 q 402 658 373 662 l 357 457 l 480 400 q 596 347 596 230 q 596 113 521 54 q 446 -5 321 -13 z m 293 487 l 310 478 l 324 664 q 252 659 221 621 q 204 600 204 572 q 204 545 226 526 q 247 507 293 487 z m 341 243 l 325 37 q 382 42 412 70 q 443 97 443 131 q 443 165 419 191 q 395 217 341 243 z"},"<":{"x_min":0,"x_max":501,"ha":501,"o":"m 442 526 l 442 455 l 133 310 l 442 164 l 442 93 l 40 280 l 40 339 z"},"'":{"x_min":0,"x_max":220,"ha":220,"o":"m 30 505 q 64 590 64 643 q 64 669 59 700 l 191 714 q 191 710 191 698 q 191 687 185 660 q 179 634 164 602 q 150 569 119 540 q 88 512 47 500 z"},"=":{"x_min":0,"x_max":481,"ha":481,"o":"m 40 354 l 40 419 l 442 419 l 442 354 z m 40 179 l 40 244 l 442 244 l 442 179 z"},"a":{"x_min":0,"x_max":632,"ha":632,"o":"m 669 10 l 677 10 l 677 0 l 325 0 l 325 10 l 333 10 q 353 10 362 20 q 372 31 372 40 q 372 50 367 61 l 338 127 l 153 127 l 123 58 q 119 49 119 40 q 119 31 128 20 q 138 10 158 10 l 165 10 l 165 0 l -41 0 l -41 10 l -33 10 q -12 10 10 22 q 31 34 43 59 l 249 503 q 298 610 301 636 l 309 636 l 591 61 q 617 10 669 10 z m 172 172 l 318 172 l 245 340 z"},"L":{"x_min":0,"x_max":652,"ha":652,"o":"m 43 10 q 69 10 88 28 q 106 47 107 73 l 107 627 q 106 664 75 682 q 60 690 43 690 l 30 690 l 30 700 l 389 700 l 389 690 l 376 690 q 350 690 331 672 q 312 653 312 627 l 312 51 l 435 51 q 508 51 564 99 q 620 147 643 232 l 653 232 l 615 0 l 30 0 l 30 10 z"},"3":{"x_min":0,"x_max":602,"ha":602,"o":"m 279 712 q 399 712 466 667 q 533 622 533 540 q 533 475 492 436 q 452 397 398 395 q 460 383 508 341 q 562 292 562 204 q 562 115 511 51 q 415 -70 222 -70 q 124 -70 39 -32 l 41 -22 q 46 -22 52 -22 q 127 -22 194 6 q 262 33 304 89 q 347 145 347 216 q 347 260 330 294 q 314 327 286 346 q 232 383 162 384 l 164 394 q 167 394 170 394 q 236 394 282 440 q 328 487 328 548 q 328 614 287 642 q 259 663 220 663 q 149 663 120 610 q 97 567 97 485 q 97 477 97 468 l 87 468 l 30 641 q 69 673 134 692 q 200 712 279 712 z"},"J":{"x_min":0,"x_max":424,"ha":424,"o":"m 382 690 q 346 690 327 659 q 319 645 318 627 l 318 50 q 318 -32 272 -94 q 225 -156 151 -183 q 98 -203 41 -203 q 19 -203 -4 -200 l -4 -191 q 113 -138 113 53 l 113 627 q 112 653 94 672 q 75 690 49 690 l 36 690 l 36 700 l 395 700 l 395 690 z"},"V":{"x_min":0,"x_max":720,"ha":720,"o":"m 761 690 l 752 690 q 700 690 669 636 l 436 125 q 383 13 379 -24 l 370 -24 l 53 635 q 22 690 -31 690 l -39 690 l -39 700 l 340 700 l 340 690 l 331 690 q 310 690 300 676 q 289 663 289 651 q 289 639 293 627 l 436 284 l 585 627 q 591 640 591 652 q 591 663 580 676 q 569 690 547 690 l 538 690 l 538 700 l 761 700 z"},"\"":{"x_min":0,"x_max":394,"ha":394,"o":"m 30 505 q 64 590 64 643 q 64 669 59 700 l 191 714 q 191 710 191 698 q 191 687 185 660 q 179 634 164 602 q 150 569 119 540 q 88 512 47 500 z m 204 505 q 238 590 238 643 q 238 669 233 700 l 364 714 q 364 710 364 698 q 364 687 358 660 q 353 634 338 602 q 323 569 292 540 q 262 512 221 500 z"},"7":{"x_min":0,"x_max":572,"ha":572,"o":"m 90 525 q 61 525 44 510 q 27 496 15 465 l 5 465 l 33 698 l 563 698 l 435 403 q 406 337 363 208 q 320 79 298 0 l 128 0 q 159 50 237 186 q 315 322 358 414 l 410 525 z"},"S":{"x_min":0,"x_max":645,"ha":645,"o":"m 291 -14 q 208 -14 145 4 q 82 23 54 51 q 45 73 45 98 q 45 124 49 148 q 60 207 86 240 l 95 240 q 94 234 94 227 q 94 153 152 94 q 211 36 312 36 q 380 36 416 64 q 453 93 453 130 q 453 166 428 192 q 403 218 347 244 l 184 320 q 115 351 84 407 q 59 451 59 504 q 59 612 132 668 q 193 714 294 714 q 360 714 463 704 l 541 704 l 519 541 l 509 541 q 509 596 466 630 q 423 664 356 664 q 290 664 254 641 q 217 618 214 580 q 210 533 274 500 q 285 494 303 487 l 490 400 q 606 347 606 226 q 606 105 520 46 q 434 -14 291 -14 z"},"}":{"x_min":0,"x_max":407,"ha":407,"o":"m 20 725 q 22 733 22 733 q 168 733 238 669 q 304 609 304 521 q 304 491 295 450 q 278 364 278 354 q 278 344 280 340 q 287 325 323 324 l 323 314 q 290 311 283 292 q 281 288 281 273 q 281 258 292 202 q 304 147 304 106 q 304 66 290 30 q 277 -5 248 -36 q 186 -100 42 -100 l 40 -92 q 83 -81 97 -51 q 105 -34 105 1 l 98 110 q 98 213 129 254 q 141 269 150 278 q 159 286 177 295 q 199 305 237 316 q 229 319 214 323 q 200 327 193 329 q 186 331 174 336 q 161 341 155 346 q 149 351 140 360 q 130 368 125 378 q 120 389 114 404 q 108 419 105 438 q 98 483 98 536 l 99 599 q 99 641 95 653 q 91 665 85 678 q 79 692 71 699 q 49 717 20 725 z"},"Z":{"x_min":0,"x_max":668,"ha":668,"o":"m 49 719 q 64 713 102 707 q 139 701 154 701 q 170 701 170 701 l 515 701 q 557 701 586 706 q 615 711 621 714 l 621 705 l 285 50 l 426 50 q 499 50 555 98 q 611 147 634 232 l 644 232 l 606 0 l 35 0 l 35 9 l 367 651 l 187 651 q 127 650 93 616 q 59 581 59 521 l 59 513 l 49 513 z"},"x":{"x_min":0,"x_max":666,"ha":666,"o":"m 692 0 l 335 0 l 335 10 l 345 10 q 363 10 371 22 q 379 35 379 44 q 379 52 374 60 l 276 221 l 160 60 q 154 51 154 42 q 154 34 162 22 q 169 10 188 10 l 198 10 l 198 0 l -23 0 l -23 10 l -11 10 q 33 10 68 52 l 239 281 l 76 549 q 63 567 41 580 q 19 592 -4 592 l -15 592 l -15 602 l 340 602 l 340 592 l 330 592 q 311 592 301 576 q 291 558 301 542 l 393 391 l 490 542 q 495 551 495 560 q 495 568 488 580 q 480 592 462 592 l 452 592 l 452 602 l 668 602 l 668 592 l 656 592 q 607 592 576 548 l 431 330 l 599 55 q 612 36 634 23 q 656 10 681 10 l 692 10 z"},")":{"x_min":0,"x_max":478,"ha":478,"o":"m 32 -91 q 189 19 189 354 q 189 648 30 724 l 36 732 q 218 712 305 601 q 389 495 389 334 q 389 183 306 67 q 264 9 196 -35 q 127 -79 38 -100 z"},"&":{"x_min":0,"x_max":911,"ha":911,"o":"m 921 0 q 836 -10 756 -10 q 676 -10 601 27 q 520 -10 401 -10 q 237 -10 134 44 q 25 102 25 211 q 25 319 127 374 q 154 388 184 397 q 141 466 141 524 q 141 581 165 618 q 189 655 229 675 q 307 714 410 714 q 481 714 542 696 q 602 679 625 643 l 578 480 l 569 480 q 567 664 453 664 q 391 664 364 615 q 351 592 351 563 q 351 511 391 462 q 431 414 527 331 l 661 216 q 669 251 669 290 q 669 330 650 372 q 630 415 593 415 q 592 415 592 415 l 577 415 l 577 425 l 833 425 l 833 415 l 819 415 q 805 415 798 408 q 791 400 789 392 q 787 383 786 371 q 774 230 733 152 q 865 37 920 11 z m 548 60 q 505 91 438 146 q 372 201 367 205 q 292 267 245 317 q 237 292 237 273 q 237 201 262 156 q 287 111 320 88 q 354 64 390 52 q 427 40 468 40 q 510 40 548 60 z"},"_":{"x_min":0,"x_max":500,"ha":500,"o":"m 0 -110 l 0 -60 l 500 -60 l 500 -110 z"},"v":{"x_min":0,"x_max":620,"ha":620,"o":"m 663 590 l 655 590 q 606 590 581 544 l 379 122 q 330 18 327 -12 l 319 -12 l 38 545 q 12 590 -35 590 l -42 590 l -42 600 l 309 600 l 309 591 l 301 591 q 282 591 272 580 q 263 568 263 558 q 263 548 267 538 l 383 281 l 499 538 q 504 549 504 559 q 504 569 495 580 q 486 591 466 591 l 458 591 l 458 600 l 663 600 z"},"(":{"x_min":0,"x_max":478,"ha":478,"o":"m 290 354 q 290 19 447 -91 l 441 -100 q 351 -79 282 -35 q 214 9 173 67 q 90 183 90 334 q 90 495 173 601 q 261 712 443 732 l 449 724 q 290 648 290 354 z"},"C":{"x_min":0,"x_max":793,"ha":793,"o":"m 35 351 q 35 464 87 546 q 139 628 238 671 q 336 714 479 714 q 622 714 730 668 l 720 477 l 711 477 q 682 578 627 621 q 572 664 490 664 q 379 664 317 582 q 255 500 255 354 q 255 207 312 123 q 370 39 472 36 q 590 36 643 92 q 693 144 721 292 l 729 292 l 753 110 q 679 -14 474 -14 q 268 -13 152 82 q 35 178 35 351 z"},"W":{"x_min":0,"x_max":964,"ha":964,"o":"m 1005 690 l 997 690 q 972 690 947 676 q 922 661 911 633 l 741 89 q 726 42 726 -5 q 726 -14 727 -22 l 717 -22 l 486 413 l 328 89 q 302 33 301 -22 l 292 -22 l 45 633 q 31 662 8 676 q -16 690 -41 690 l -49 690 l -49 700 l 310 700 l 310 690 l 301 690 q 271 690 261 662 q 260 656 260 648 q 260 640 264 628 l 373 356 l 546 716 l 555 715 l 754 347 l 834 628 q 836 639 836 648 q 836 656 833 666 q 830 676 820 683 q 810 690 796 690 l 787 690 l 787 700 l 1005 700 z"},"A":{"x_min":0,"x_max":720,"ha":720,"o":"m 753 10 l 761 10 l 761 0 l 382 0 l 382 10 l 391 10 q 413 10 424 24 q 435 37 435 48 q 435 60 430 73 l 391 166 l 177 166 l 137 73 q 132 60 132 52 q 132 44 136 34 q 139 25 150 18 q 162 10 175 10 l 184 10 l 184 0 l -39 0 l -39 10 l -30 10 q -7 10 16 24 q 38 37 53 64 l 286 575 q 339 687 343 724 l 352 724 l 669 65 q 701 10 753 10 z m 199 216 l 370 216 l 286 416 z"},"f":{"x_min":0,"x_max":542,"ha":542,"o":"m 510 424 l 500 424 l 500 430 q 500 508 446 538 q 419 553 381 554 l 280 554 l 280 319 l 356 319 q 401 320 428 348 q 456 377 456 422 l 456 424 l 466 424 l 466 166 l 456 166 l 456 170 q 456 214 428 243 q 401 272 356 272 l 280 272 l 280 62 q 281 31 306 17 q 318 10 333 10 l 343 10 l 343 0 l 21 0 l 21 10 l 32 10 q 53 10 68 25 q 84 40 84 62 l 84 537 q 84 560 68 575 q 53 590 32 590 l 21 590 l 21 600 l 411 600 q 436 600 467 605 q 498 610 510 615 z"},"w":{"x_min":0,"x_max":851,"ha":851,"o":"m 884 590 l 877 590 q 856 590 836 580 q 816 570 805 549 l 658 87 q 645 48 645 22 q 645 -3 645 -10 l 637 -10 l 431 338 l 297 84 q 273 37 273 -10 l 265 -10 l 49 542 q 38 567 18 578 q -3 590 -24 590 l -31 590 l -31 600 l 298 600 l 298 590 l 289 590 q 272 590 263 580 q 254 569 254 560 q 254 551 256 543 l 348 335 l 493 613 l 500 613 l 672 325 l 734 539 q 736 548 736 558 q 736 568 728 579 q 719 590 700 590 l 693 590 l 693 600 l 884 600 z"},"-":{"x_min":0,"x_max":380,"ha":380,"o":"m 30 292 l 40 332 l 340 332 l 350 292 l 340 251 l 40 251 z"},"E":{"x_min":0,"x_max":667,"ha":667,"o":"m 43 10 q 69 10 88 28 q 106 47 107 73 l 107 627 q 106 659 80 678 q 64 690 43 690 l 30 690 l 30 700 l 473 700 q 504 700 540 706 q 577 712 592 718 l 592 512 l 582 512 l 582 520 q 582 600 524 632 q 496 648 457 649 l 312 649 l 312 370 l 421 370 q 469 371 499 402 q 529 432 529 480 l 529 484 l 539 484 l 539 206 l 529 206 l 529 211 q 529 258 499 288 q 469 319 422 320 l 312 320 l 312 51 l 435 51 q 508 51 564 99 q 620 147 643 232 l 653 232 l 615 0 l 30 0 l 30 10 z"},"s":{"x_min":0,"x_max":549,"ha":549,"o":"m 514 202 q 514 92 435 37 q 365 -12 241 -12 q 167 -12 118 4 q 68 21 49 45 q 40 66 40 89 q 40 112 44 133 q 55 186 79 216 l 85 216 q 85 211 85 207 q 85 140 133 87 q 182 34 268 34 q 319 34 345 57 q 371 80 371 110 q 371 140 348 163 q 324 186 271 209 l 166 258 q 102 285 72 337 q 49 377 49 425 q 49 441 51 457 q 73 612 241 612 q 297 612 392 603 l 459 603 l 435 457 l 429 457 q 429 506 394 536 q 358 565 305 565 q 203 565 196 499 q 193 467 220 448 q 241 434 278 419 l 407 360 q 460 337 487 296 q 514 255 514 202 z"},">":{"x_min":0,"x_max":481,"ha":481,"o":"m 40 526 l 442 339 l 442 280 l 40 93 l 40 164 l 349 310 l 40 455 z"},"l":{"x_min":0,"x_max":557,"ha":557,"o":"m 533 0 l 21 0 l 21 10 l 32 10 q 53 10 68 25 q 84 40 84 62 l 84 538 q 84 560 68 575 q 53 590 32 590 l 21 590 l 21 600 l 344 600 l 344 590 l 333 590 q 298 590 285 559 q 280 549 280 538 l 280 46 l 376 46 q 436 46 484 90 q 533 134 552 210 l 562 210 z"},"8":{"x_min":0,"x_max":636,"ha":636,"o":"m 611 200 q 611 97 527 42 q 443 -14 298 -14 q 96 -14 42 87 q 25 119 25 159 q 25 226 64 266 q 103 306 160 326 q 68 398 68 500 q 68 602 137 658 q 206 714 311 714 q 416 714 489 666 q 562 618 562 544 q 562 493 524 458 q 487 424 430 410 q 547 349 578 306 q 611 260 611 200 z m 372 441 q 396 486 396 547 q 396 601 373 631 q 349 663 311 663 q 273 663 253 640 q 233 617 233 578 q 233 539 261 512 q 289 485 372 441 z m 322 35 q 361 35 394 58 q 427 81 427 118 q 427 154 393 185 q 359 216 294 249 q 229 282 217 289 q 194 248 194 184 q 194 120 223 81 q 257 35 322 35 z"},"\\":{"x_min":0,"x_max":439,"ha":439,"o":"m 10 696 l 69 723 l 430 14 l 371 -14 z"},"e":{"x_min":0,"x_max":575,"ha":575,"o":"m 21 0 l 21 10 l 32 10 q 53 10 64 21 q 84 40 84 62 l 84 537 q 84 560 68 575 q 53 590 32 590 l 21 590 l 21 600 l 411 600 q 436 600 467 605 q 498 610 510 615 l 510 426 l 500 426 l 500 431 q 500 489 470 521 q 439 553 383 554 l 280 554 l 280 319 l 357 319 q 401 320 428 348 q 456 377 456 422 l 456 424 l 466 424 l 466 166 l 456 166 l 456 170 q 456 214 428 243 q 401 272 357 272 l 280 272 l 280 46 l 376 46 q 436 46 485 90 q 534 134 552 210 l 561 210 l 533 0 z"},"b":{"x_min":0,"x_max":626,"ha":626,"o":"m 552 525 q 571 494 571 442 q 571 391 539 359 q 507 327 462 327 q 524 324 568 284 q 611 243 611 173 q 611 85 538 42 q 465 0 341 0 l 23 0 l 23 10 l 34 10 q 56 10 71 25 q 86 40 86 62 l 86 538 q 86 560 71 575 q 56 590 34 590 l 23 590 l 23 600 l 334 600 q 506 600 552 525 z m 308 317 q 307 317 306 317 l 306 325 q 343 325 356 353 q 370 381 370 435 q 370 555 281 555 l 278 555 l 278 46 q 328 48 359 82 q 390 115 390 182 q 390 249 372 283 q 353 317 308 317 z"},"%":{"x_min":0,"x_max":777,"ha":777,"o":"m 363 642 q 379 610 379 582 q 379 553 377 537 q 368 454 312 408 q 257 361 172 361 q 86 361 48 410 q 20 447 20 505 q 20 614 89 670 q 144 714 229 714 l 230 714 q 232 714 250 714 q 267 714 294 707 q 322 700 336 691 q 381 665 419 665 q 461 665 523 698 q 539 706 544 709 l 583 692 l 211 -19 l 166 0 l 512 653 q 475 629 437 629 q 399 629 363 642 z m 253 598 q 253 674 225 674 q 197 674 177 611 q 156 543 156 472 q 156 401 182 402 q 207 402 224 438 q 242 473 248 522 q 253 571 253 598 z m 450 295 q 505 339 586 339 q 667 339 703 296 q 739 253 739 187 q 739 86 679 36 q 619 -14 533 -14 q 447 -14 409 35 q 381 72 381 129 q 381 238 450 295 z m 510 94 q 510 26 537 26 q 561 26 578 62 q 596 97 602 146 q 608 196 608 223 q 608 299 579 299 q 558 299 542 263 q 525 227 518 175 q 510 123 510 94 z"},"m":{"x_min":0,"x_max":854,"ha":854,"o":"m 550 0 l 550 10 l 564 10 q 582 10 590 22 q 598 35 597 48 l 564 272 l 426 79 q 411 58 400 30 q 389 2 389 -8 q 389 -19 389 -22 l 381 -22 l 156 258 l 129 48 q 128 38 134 28 q 144 10 162 10 l 176 10 l 176 0 l -18 0 l -18 10 l -5 10 q 20 10 38 24 q 56 37 59 62 l 137 612 l 145 612 l 443 237 l 710 612 l 719 612 l 799 57 q 805 35 822 22 q 838 10 860 10 l 874 10 l 874 0 z"},"#":{"x_min":0,"x_max":600,"ha":600,"o":"m 546 437 l 428 437 l 400 277 l 502 277 l 502 217 l 389 217 l 351 0 l 289 0 l 327 217 l 189 217 l 151 0 l 89 0 l 127 217 l 20 217 l 20 277 l 138 277 l 166 437 l 64 437 l 64 497 l 177 497 l 212 700 l 274 700 l 239 497 l 377 497 l 412 700 l 474 700 l 439 497 l 546 497 z m 338 277 l 366 437 l 228 437 l 200 277 z"},",":{"x_min":0,"x_max":260,"ha":260,"o":"m 41 -116 q 71 -103 82 -73 q 86 -61 86 -52 q 86 -20 60 10 q 35 39 35 76 q 35 125 68 149 q 90 166 111 166 q 184 166 210 108 q 225 71 225 35 q 225 -1 209 -34 q 175 -104 113 -125 q 92 -132 75 -132 q 58 -132 45 -129 z"},"n":{"x_min":0,"x_max":779,"ha":779,"o":"m 768 590 l 751 590 q 728 590 712 576 q 696 562 696 541 l 696 97 q 696 32 705 -1 l 708 -12 l 699 -12 l 279 341 l 279 60 q 280 39 296 24 q 311 10 334 10 l 350 10 l 350 0 l 12 0 l 12 10 l 28 10 q 51 10 67 24 q 83 39 83 60 l 83 507 q 83 567 74 602 l 71 613 l 80 613 l 499 259 l 499 540 q 499 561 484 576 q 468 590 445 590 l 428 590 l 428 600 l 768 600 z"},"h":{"x_min":0,"x_max":754,"ha":754,"o":"m 670 538 l 670 62 q 670 31 696 17 q 708 10 722 10 l 733 10 l 733 0 l 412 0 l 412 10 l 422 10 q 444 10 459 25 q 474 40 475 62 l 475 278 l 280 278 l 280 62 q 281 40 296 25 q 311 10 333 10 l 343 10 l 343 0 l 21 0 l 21 10 l 32 10 q 53 10 68 25 q 84 40 84 62 l 84 538 q 84 560 68 575 q 53 590 32 590 l 21 590 l 21 600 l 343 600 l 343 590 l 333 590 q 311 590 296 575 q 281 560 280 538 l 280 324 l 475 324 l 475 538 q 474 560 459 575 q 444 590 422 590 l 412 590 l 412 600 l 734 600 l 734 590 l 723 590 q 701 590 686 576 q 670 561 670 538 z"},"z":{"x_min":0,"x_max":606,"ha":606,"o":"m 25 0 l 25 8 l 326 555 l 168 555 q 111 555 80 522 q 48 490 48 432 l 48 428 l 38 428 l 38 616 q 50 611 84 606 q 117 601 144 601 l 482 601 q 519 601 546 605 q 572 609 577 612 l 577 605 l 287 45 l 395 45 q 463 45 515 89 q 567 133 588 210 l 598 210 l 562 0 z"},"B":{"x_min":0,"x_max":731,"ha":731,"o":"m 394 0 l 30 0 l 30 10 l 43 10 q 79 10 98 41 q 106 55 107 72 l 107 628 q 106 664 75 682 q 60 690 43 690 l 30 690 l 30 700 l 378 700 q 656 700 656 526 q 656 425 574 391 q 551 382 525 381 q 602 377 654 328 q 707 280 707 200 q 707 100 622 50 q 537 0 394 0 z m 326 52 q 391 52 432 91 q 472 130 472 210 q 472 289 440 330 q 408 370 346 370 l 346 379 q 441 379 441 514 q 441 650 325 650 q 325 650 325 650 l 312 650 l 312 52 l 325 52 q 326 52 326 52 z"},"K":{"x_min":0,"x_max":822,"ha":822,"o":"m 43 10 q 69 10 88 28 q 106 47 107 73 l 107 628 q 106 654 88 672 q 69 690 43 690 l 30 690 l 30 700 l 389 700 l 389 690 l 376 690 q 350 690 332 672 q 313 654 312 628 l 312 73 q 312 47 331 28 q 350 10 376 10 l 389 10 l 389 0 l 30 0 l 30 10 z m 848 0 l 740 0 q 556 0 483 100 q 453 140 398 228 q 344 317 344 318 l 583 644 q 590 654 590 662 q 590 670 587 676 q 580 691 559 691 l 549 691 l 549 700 l 790 700 l 790 691 l 786 691 q 719 691 676 642 l 507 438 l 741 86 q 790 12 848 10 z"},"R":{"x_min":0,"x_max":793,"ha":793,"o":"m 675 590 q 691 555 691 518 q 691 480 683 452 q 675 423 658 395 q 621 335 531 321 q 570 310 601 282 q 634 254 663 204 q 738 76 778 39 q 808 11 854 10 l 854 0 l 729 0 q 599 0 543 29 q 463 70 429 170 q 420 199 414 231 q 407 263 402 278 q 398 292 392 304 q 386 317 379 324 q 367 336 351 342 l 351 352 l 367 352 q 425 352 454 405 q 469 433 472 466 q 476 498 476 506 q 476 514 476 516 q 469 648 362 648 l 318 648 l 318 73 q 318 47 337 28 q 356 10 382 10 l 394 10 l 394 0 l 35 0 l 35 10 l 48 10 q 74 10 92 28 q 111 46 112 72 l 112 627 q 111 664 80 682 q 65 690 48 690 l 35 690 l 35 700 l 426 700 q 622 700 675 590 z"},"T":{"x_min":0,"x_max":698,"ha":698,"o":"m 452 651 l 452 72 q 453 46 472 28 q 490 10 516 10 l 529 10 l 529 0 l 170 0 l 170 10 l 183 10 q 209 10 228 28 q 246 46 247 71 l 247 651 l 148 651 q 88 650 54 616 q 20 581 20 521 l 20 514 l 10 513 l 10 719 q 24 713 60 707 q 97 701 128 701 l 571 701 q 602 701 638 707 q 674 713 689 719 l 689 513 l 679 514 l 679 521 q 679 602 619 635 q 590 650 550 651 z"},"P":{"x_min":0,"x_max":707,"ha":707,"o":"m 693 495 q 693 449 674 406 q 656 363 621 334 q 558 283 487 283 q 415 283 351 329 l 351 339 q 387 345 406 358 q 424 372 435 383 q 460 410 468 446 q 477 482 477 497 q 477 576 443 613 q 409 650 352 650 l 317 650 l 317 73 q 318 47 336 28 q 355 10 381 10 l 394 10 l 394 0 l 35 0 l 35 10 l 48 10 q 84 10 103 41 q 112 56 112 73 l 112 633 q 109 657 91 674 q 73 690 48 690 l 36 690 l 35 700 l 416 700 q 553 700 626 643 q 693 592 693 495 z"},"|":{"x_min":0,"x_max":265,"ha":265,"o":"m 100 -180 l 100 700 l 165 700 l 165 -180 z"},"t":{"x_min":0,"x_max":613,"ha":613,"o":"m 606 428 l 596 428 l 596 433 q 597 510 542 539 q 516 554 478 554 l 404 554 l 404 62 q 404 40 420 25 q 435 10 457 10 l 467 10 l 467 0 l 146 0 l 146 10 l 156 10 q 177 10 192 25 q 208 40 208 62 l 208 554 l 135 554 q 49 553 25 484 q 17 461 17 433 l 17 428 l 7 428 l 7 616 q 20 611 51 606 q 82 601 107 601 l 506 601 q 532 601 565 606 q 598 611 606 616 z"},"M":{"x_min":0,"x_max":968,"ha":968,"o":"m 979 10 l 995 10 l 995 0 l 640 0 l 640 9 l 656 9 q 672 9 684 22 q 695 36 695 52 l 657 344 l 487 92 q 470 68 457 34 q 444 0 445 -24 l 436 -24 l 176 335 l 141 52 q 141 36 152 22 q 164 9 180 9 l 196 9 l 196 0 l -24 0 l -24 10 l -8 10 q 20 10 40 27 q 61 44 65 73 l 153 714 l 162 714 l 498 255 l 806 714 l 815 714 l 906 73 q 913 33 946 17 q 961 10 979 10 z"},"g":{"x_min":0,"x_max":723,"ha":723,"o":"m 24 302 q 24 448 114 530 q 203 612 365 612 q 433 612 509 602 q 585 591 622 576 l 608 406 l 601 406 q 556 567 416 567 q 319 567 274 498 q 228 428 228 292 q 228 33 377 33 q 418 33 444 56 q 471 80 471 113 q 471 120 470 128 l 470 240 q 470 259 459 270 q 448 280 428 280 l 414 280 l 414 288 l 719 288 l 719 280 l 707 280 q 664 280 664 240 l 664 98 q 633 56 544 22 q 455 -12 354 -12 q 254 -12 180 25 q 106 62 65 133 q 24 204 24 302 z"},"j":{"x_min":0,"x_max":361,"ha":361,"o":"m 330 590 q 309 590 294 574 q 278 559 276 537 l 276 51 q 276 -24 234 -80 q 191 -135 126 -159 q 79 -175 44 -175 q 9 -175 -13 -172 l -13 -163 q 48 -134 66 -70 q 80 -18 80 54 l 80 535 q 80 558 64 574 q 48 590 26 590 l 16 590 l 15 600 l 341 600 l 341 590 z"},"i":{"x_min":0,"x_max":363,"ha":363,"o":"m 331 10 l 342 10 l 342 0 l 21 0 l 21 10 l 32 10 q 53 10 68 25 q 83 40 83 62 l 83 538 q 83 560 68 575 q 53 590 32 590 l 21 590 l 21 600 l 341 600 l 341 590 l 331 590 q 301 590 287 565 q 280 553 279 538 l 279 62 q 280 40 295 25 q 310 10 331 10 z"},"y":{"x_min":0,"x_max":633,"ha":633,"o":"m 685 590 l 672 590 q 646 590 624 576 q 601 563 587 543 l 418 279 l 418 62 q 419 40 434 25 q 450 10 473 10 l 484 10 l 484 0 l 156 0 l 156 10 l 168 10 q 190 10 206 25 q 222 40 222 62 l 222 278 l 50 543 q 31 571 6 580 q -18 590 -35 590 l -47 590 l -47 600 l 303 600 l 303 590 l 293 590 q 274 590 266 578 q 258 565 258 556 q 258 547 263 539 l 387 329 l 508 539 q 513 547 513 556 q 513 564 504 577 q 496 590 478 590 l 467 590 l 467 600 l 685 600 z"},"@":{"x_min":0,"x_max":998,"ha":998,"o":"m 84 114 q 20 169 20 267 q 20 325 47 395 q 88 495 177 568 q 266 641 385 673 q 463 694 525 694 q 778 694 891 563 q 974 466 974 327 q 974 162 875 42 q 776 -79 607 -115 q 558 -126 503 -126 q 371 -126 208 -63 l 204 -53 q 311 -97 406 -97 q 532 -97 631 -34 q 713 20 762 113 q 820 220 820 341 q 820 462 776 535 q 726 619 625 642 q 586 649 564 649 q 542 649 537 649 q 450 647 355 582 q 262 518 202 390 q 150 282 150 199 q 150 156 166 138 q 182 119 200 118 q 218 117 232 122 q 245 127 257 135 q 269 143 282 155 q 294 167 305 180 q 316 192 328 208 q 339 223 349 236 q 374 272 389 291 l 516 464 q 562 521 571 541 l 577 541 l 661 137 q 670 90 701 90 l 706 90 l 704 83 l 466 83 l 467 90 l 474 90 q 489 90 502 102 q 516 114 516 124 q 516 133 515 137 l 507 190 l 371 190 q 323 128 286 101 q 246 73 189 73 q 132 73 84 114 z m 483 346 l 398 225 l 502 225 z"},"p":{"x_min":0,"x_max":607,"ha":607,"o":"m 307 282 l 307 290 q 343 295 368 345 q 388 386 388 436 q 388 510 342 541 q 321 555 292 555 l 280 555 l 280 62 q 281 39 295 24 q 309 10 332 10 l 342 10 l 342 0 l 22 0 l 22 10 l 33 10 q 54 10 69 25 q 84 40 84 62 l 84 539 q 83 561 68 576 q 53 590 32 590 l 21 590 l 21 600 l 357 600 q 500 600 557 531 q 592 488 592 423 q 592 384 578 346 q 563 308 533 283 q 481 239 421 239 q 361 239 307 282 z"},"X":{"x_min":0,"x_max":773,"ha":773,"o":"m 420 10 q 441 10 454 31 q 460 41 460 51 q 460 61 454 72 l 322 273 l 180 72 q 163 42 190 20 q 202 10 215 10 l 228 10 l 228 0 l -32 0 l -32 10 l -18 10 q 36 10 81 67 l 280 339 l 89 632 q 72 656 45 673 q 18 690 -12 690 l -26 690 l -26 700 l 376 700 l 376 690 l 364 690 q 342 690 330 669 q 323 659 323 648 q 323 638 329 628 l 446 451 l 559 628 q 565 638 565 648 q 565 659 559 669 q 546 690 524 690 l 512 690 l 511 700 l 770 700 l 770 690 l 756 690 q 727 690 701 674 q 675 657 657 632 l 490 383 l 696 68 q 712 44 740 27 q 767 10 797 10 l 811 10 l 811 0 l 407 0 l 407 10 z"},"*":{"x_min":0,"x_max":390,"ha":390,"o":"m 202 605 l 269 574 l 328 516 l 293 474 l 242 454 l 204 527 l 195 600 l 187 527 l 150 454 l 99 474 l 64 516 l 122 574 l 188 605 l 116 591 l 35 604 l 38 658 l 68 704 l 141 667 l 191 614 l 156 678 l 142 759 l 195 773 l 248 759 l 236 678 l 200 613 l 250 667 l 323 705 l 353 659 l 356 604 l 274 591 z"},"Y":{"x_min":0,"x_max":729,"ha":729,"o":"m 776 690 l 762 690 q 732 690 704 673 q 677 656 661 631 l 465 322 l 465 73 q 465 47 484 28 q 502 10 529 10 l 541 10 l 541 0 l 183 0 l 183 10 l 196 10 q 222 10 240 28 q 259 46 260 72 l 260 322 l 69 633 q 44 672 0 685 q -15 690 -30 690 l -44 690 l -44 700 l 342 700 l 342 690 l 330 690 q 308 690 296 670 q 289 659 289 648 q 289 638 295 628 l 432 381 l 574 628 q 580 638 580 648 q 580 658 573 669 q 560 690 539 690 l 527 690 l 527 700 l 776 700 z"},"c":{"x_min":0,"x_max":668,"ha":668,"o":"m 404 612 q 531 612 622 576 l 609 406 l 602 406 q 576 494 532 530 q 487 567 421 567 q 322 567 274 496 q 227 426 227 304 q 227 182 273 110 q 319 36 404 33 q 474 33 510 54 q 549 76 569 122 q 588 166 606 250 l 613 250 l 639 90 q 579 -12 402 -12 q 225 -11 124 70 q 23 151 23 300 q 23 448 123 530 q 223 612 404 612 z"},"/":{"x_min":0,"x_max":439,"ha":439,"o":"m 10 14 l 371 723 l 430 696 l 69 -14 z"},"[":{"x_min":0,"x_max":472,"ha":472,"o":"m 120 -90 l 120 722 l 429 722 l 429 712 l 325 662 l 325 -30 l 432 -80 l 432 -90 z"},"6":{"x_min":0,"x_max":675,"ha":675,"o":"m 435 452 q 489 452 522 436 q 555 420 581 394 q 635 341 635 240 q 635 128 563 58 q 487 -15 336 -15 q 40 -15 40 315 q 40 533 168 647 q 273 741 461 741 q 508 741 559 734 l 563 727 q 473 699 434 676 q 395 653 373 637 q 351 621 335 600 q 319 579 307 560 q 295 542 288 516 q 280 490 276 468 q 271 447 268 415 q 265 365 265 302 q 265 240 266 204 q 268 168 273 136 q 278 103 288 84 q 308 45 349 45 q 409 45 423 118 q 430 155 430 226 q 430 355 380 376 q 367 381 348 381 q 330 381 305 365 l 298 373 q 309 400 334 419 q 359 438 388 445 q 418 452 435 452 z"},"r":{"x_min":0,"x_max":678,"ha":678,"o":"m 604 435 q 604 383 579 339 q 550 288 476 275 q 511 266 540 240 q 570 213 580 196 q 589 179 599 158 q 658 43 692 21 q 710 10 737 10 l 737 0 l 619 0 q 520 0 490 13 q 449 31 430 54 q 412 76 395 106 q 368 152 351 237 q 341 282 318 294 l 318 302 l 323 302 q 351 302 372 328 q 393 353 399 411 q 399 412 399 417 q 404 462 391 492 q 378 521 368 531 q 358 541 342 546 q 325 552 311 552 l 291 552 l 291 62 q 291 37 308 24 q 324 10 344 10 l 353 10 l 353 0 l 32 0 l 32 10 l 43 10 q 64 10 79 25 q 94 40 94 62 l 94 538 q 94 560 80 575 q 65 590 44 590 l 32 590 l 32 600 l 376 600 q 604 600 604 435 z"},"2":{"x_min":0,"x_max":658,"ha":658,"o":"m 308 714 q 373 714 438 690 q 502 666 540 619 q 578 572 578 509 q 578 420 504 342 q 446 279 359 222 q 342 211 318 196 q 294 181 287 176 l 477 176 q 522 176 555 202 q 588 227 614 281 l 624 281 l 556 0 l 36 0 l 36 10 q 63 43 108 98 q 154 152 184 188 q 215 223 252 273 q 289 323 310 362 q 363 454 363 530 q 363 595 328 632 q 298 664 247 664 q 241 664 235 664 q 106 653 107 456 l 97 456 l 30 636 q 120 714 308 714 z"},"{":{"x_min":0,"x_max":407,"ha":407,"o":"m 309 110 l 303 1 q 303 -34 310 -49 q 325 -81 368 -92 l 366 -100 q 166 -100 117 30 q 104 66 104 106 q 104 147 116 202 q 127 257 127 272 q 127 287 125 292 q 118 311 85 314 l 85 324 q 120 325 128 340 q 130 344 130 354 q 130 363 126 386 q 121 409 112 450 q 104 491 104 528 q 104 564 120 602 q 157 685 258 716 q 313 733 385 733 l 386 733 l 388 725 q 337 712 323 678 q 309 645 309 599 l 309 536 q 309 444 293 404 q 280 370 270 360 q 259 351 252 346 q 246 341 234 336 q 222 331 214 329 q 207 327 192 323 q 178 319 171 316 q 238 297 258 278 q 286 250 294 225 q 309 172 309 110 z"},"9":{"x_min":0,"x_max":675,"ha":675,"o":"m 240 244 q 186 244 153 260 q 120 276 94 302 q 40 355 40 457 q 40 594 144 662 q 218 711 339 711 q 635 711 635 381 q 635 163 506 49 q 402 -44 214 -44 q 167 -44 116 -38 l 112 -31 q 202 -3 241 20 q 280 43 302 59 q 324 75 340 96 q 356 117 368 136 q 380 154 388 180 q 395 206 400 228 q 404 249 406 281 q 410 331 410 400 q 410 470 407 512 q 404 554 395 588 q 386 621 369 636 q 352 650 328 650 q 303 650 288 640 q 273 631 264 616 q 256 602 252 577 q 245 541 245 470 q 245 341 295 320 q 308 315 326 315 q 345 315 370 331 l 377 323 q 366 296 341 277 q 316 258 286 251 q 257 244 240 244 z"}," ":{"x_min":0,"x_max":250,"ha":250,"o":""},"I":{"x_min":0,"x_max":418,"ha":418,"o":"m 43 10 q 69 10 88 28 q 106 47 107 73 l 107 628 q 106 654 88 672 q 69 690 43 690 l 30 690 l 30 700 l 389 700 l 389 690 l 376 690 q 350 690 332 672 q 313 654 312 628 l 312 73 q 312 47 331 28 q 350 10 376 10 l 389 10 l 389 0 l 30 0 l 30 10 z"},"H":{"x_min":0,"x_max":893,"ha":893,"o":"m 517 10 q 543 10 562 28 q 580 46 581 72 l 581 325 l 312 325 l 312 73 q 313 36 344 18 q 359 10 376 10 l 389 10 l 389 0 l 30 0 l 30 10 l 43 10 q 69 10 88 28 q 106 47 107 73 l 107 628 q 106 654 88 672 q 69 690 43 690 l 30 690 l 30 700 l 389 700 l 389 690 l 376 690 q 350 690 332 672 q 313 654 312 628 l 312 375 l 581 375 l 581 628 q 580 654 562 672 q 543 690 517 690 l 504 690 l 504 700 l 863 700 l 863 690 l 850 690 q 814 690 795 659 q 787 644 786 627 l 786 73 q 787 47 806 28 q 824 10 850 10 l 863 10 l 863 0 l 504 0 l 504 10 z"},"4":{"x_min":0,"x_max":643,"ha":643,"o":"m 511 189 l 511 63 q 511 41 527 26 q 543 10 566 10 l 577 10 l 577 0 l 239 0 l 240 10 l 250 10 q 273 10 289 25 q 305 40 306 62 l 306 189 l -15 189 l -15 199 l 501 714 l 511 714 l 511 294 l 554 294 q 580 294 594 304 q 609 313 619 334 l 629 334 l 598 189 z m 306 294 l 306 441 l 154 294 z"},"~":{"x_min":0,"x_max":494,"ha":494,"o":"m 461 363 q 468 336 468 319 q 468 302 464 282 q 460 262 441 242 q 404 204 346 204 q 307 204 257 238 q 235 252 215 267 q 164 303 138 303 q 112 303 99 281 q 92 268 92 250 q 92 231 97 209 l 32 209 q 27 232 27 253 q 27 296 50 324 q 85 368 142 368 q 166 368 198 353 q 229 338 253 319 q 321 269 350 269 q 379 269 395 292 q 403 304 403 322 q 403 339 393 363 z"},"D":{"x_min":0,"x_max":842,"ha":842,"o":"m 409 0 l 30 0 l 30 10 l 43 10 q 69 10 88 28 q 106 47 107 73 l 107 633 q 107 657 88 674 q 68 690 43 690 l 31 690 l 30 700 l 409 700 q 597 700 702 608 q 808 515 808 350 q 808 185 702 92 q 597 0 409 0 z m 312 650 l 312 50 l 389 50 q 482 50 535 130 q 588 209 588 350 q 588 491 535 570 q 482 650 389 650 z"},"^":{"x_min":0,"x_max":572,"ha":572,"o":"m 253 381 l 321 381 l 538 172 l 449 172 l 287 325 l 124 172 l 35 172 z"},"F":{"x_min":0,"x_max":631,"ha":631,"o":"m 312 649 l 312 370 l 421 370 q 469 371 499 402 q 529 432 529 479 l 529 484 l 539 484 l 539 206 l 529 206 l 529 211 q 529 258 499 288 q 469 319 422 320 l 312 320 l 312 73 q 312 47 331 28 q 350 10 376 10 l 389 10 l 389 0 l 30 0 l 30 10 l 43 10 q 69 10 88 28 q 106 47 107 73 l 107 627 q 106 653 88 672 q 69 690 43 690 l 30 690 l 30 700 l 473 700 q 516 700 549 707 q 582 714 592 718 l 592 512 l 582 512 l 582 520 q 582 600 524 632 q 496 648 457 649 z"},"`":{"x_min":0,"x_max":600,"ha":600,"o":"m 294 750 l 287 743 q 234 749 169 776 q 104 803 54 836 q 75 909 139 936 q 182 899 228 846 q 275 794 294 750 z"},"k":{"x_min":0,"x_max":705,"ha":705,"o":"m 335 10 l 345 10 l 345 0 l 23 0 l 23 10 l 33 10 q 55 10 70 25 q 85 40 86 62 l 86 539 q 85 561 70 576 q 54 591 33 591 l 22 591 l 22 601 l 345 601 l 345 591 l 335 591 q 313 591 298 576 q 282 561 282 538 l 282 62 q 282 40 298 25 q 313 10 335 10 z m 635 0 l 624 0 q 469 0 404 90 q 376 128 342 198 q 307 267 307 268 l 506 552 q 517 567 510 580 q 504 592 487 592 l 479 592 l 479 600 l 683 600 l 683 592 l 679 592 q 627 592 592 555 l 458 387 l 647 78 q 689 10 738 8 l 738 0 z"},"u":{"x_min":0,"x_max":708,"ha":708,"o":"m 697 592 l 684 592 q 666 592 653 580 q 640 567 640 549 l 640 223 q 640 112 574 50 q 508 -12 386 -12 q 76 -12 76 221 l 76 549 q 76 578 49 589 q 41 592 32 592 l 19 592 l 19 600 l 329 600 l 329 592 l 315 592 q 297 592 284 580 q 272 568 272 549 l 272 223 q 272 103 339 58 q 372 36 418 36 q 486 36 523 82 q 560 128 561 212 l 561 549 q 560 568 548 580 q 535 592 517 592 l 504 592 l 504 600 l 697 600 z"},"]":{"x_min":0,"x_max":472,"ha":472,"o":"m 43 722 l 352 722 l 352 -90 l 40 -90 l 40 -80 l 147 -30 l 147 662 l 43 712 z"},"U":{"x_min":0,"x_max":845,"ha":845,"o":"m 825 690 l 809 690 q 788 690 772 676 q 757 663 756 643 l 756 257 q 756 130 678 58 q 599 -14 456 -14 q 277 -14 188 56 q 99 126 99 256 l 99 640 q 99 662 84 676 q 68 690 46 690 l 30 690 l 30 700 l 373 700 l 373 690 l 357 690 q 335 690 320 676 q 305 663 304 642 l 304 260 q 304 155 352 96 q 400 37 486 37 q 572 37 620 92 q 669 148 669 247 l 669 642 q 668 663 653 676 q 638 690 616 690 l 600 690 l 600 700 l 825 700 z"},"N":{"x_min":0,"x_max":881,"ha":881,"o":"m 843 690 q 818 690 800 672 q 782 655 781 630 l 781 114 q 781 40 791 0 l 794 -14 l 785 -14 l 306 412 l 306 71 q 306 35 337 18 q 351 10 367 10 l 386 10 l 386 0 l 20 0 l 20 10 l 39 10 q 64 10 82 28 q 100 45 100 71 l 100 590 q 100 660 90 701 l 87 715 l 97 715 l 576 289 l 576 629 q 575 655 557 672 q 539 690 514 690 l 495 690 l 495 700 l 861 700 l 861 690 z"},"+":{"x_min":0,"x_max":481,"ha":481,"o":"m 442 342 l 442 277 l 273 277 l 273 109 l 208 109 l 208 277 l 40 277 l 40 342 l 208 342 l 208 511 l 273 511 l 273 342 z"},"G":{"x_min":0,"x_max":861,"ha":861,"o":"m 425 -14 q 246 -14 140 84 q 35 181 35 352 q 35 522 141 618 q 247 714 435 714 q 516 714 602 700 q 688 687 733 668 l 723 477 l 714 477 q 662 664 485 664 q 255 664 255 342 q 255 196 302 116 q 350 36 447 36 q 500 36 540 64 q 579 93 579 143 l 580 280 q 580 302 566 314 q 553 325 529 325 l 513 325 l 513 335 l 849 335 l 849 325 l 834 325 q 809 325 796 314 q 783 302 784 280 l 784 115 q 728 44 581 6 q 505 -14 425 -14 z"},"q":{"x_min":0,"x_max":760,"ha":760,"o":"m 1138 -51 l 1144 -54 q 1144 -57 1144 -61 q 1144 -160 1083 -218 q 1024 -273 923 -273 q 809 -273 677 -196 q 612 -159 538 -96 q 472 -39 440 -26 q 408 -12 381 -12 l 378 -12 q 211 -12 118 70 q 25 152 25 300 q 25 448 118 530 q 212 612 380 612 q 547 612 640 530 q 734 448 734 299 q 734 155 645 74 q 602 34 539 12 q 609 2 657 -14 q 705 -31 782 -59 q 1008 -142 1138 -51 z m 529 299 q 529 496 445 549 q 416 567 379 567 q 306 567 268 498 q 230 428 230 300 q 230 171 268 102 q 306 33 380 33 q 453 33 491 102 q 529 171 529 299 z"},"d":{"x_min":0,"x_max":741,"ha":741,"o":"m 359 0 l 19 0 l 19 10 l 31 10 q 54 10 70 26 q 87 42 87 64 l 87 539 q 85 561 69 576 q 53 590 30 590 l 18 590 l 18 600 l 359 600 q 529 600 623 521 q 717 442 717 300 q 717 157 623 78 q 529 0 359 0 z m 283 555 l 283 46 l 340 46 q 420 46 466 113 q 512 180 512 300 q 512 462 432 525 q 393 555 340 555 z"},"1":{"x_min":0,"x_max":424,"ha":424,"o":"m 48 640 l 30 640 l 30 650 q 90 653 176 670 q 261 686 308 714 l 318 714 l 318 64 q 318 41 334 26 q 350 10 373 10 l 394 10 l 394 0 l 37 0 l 38 10 l 59 10 q 81 10 98 26 q 114 42 114 64 l 114 571 q 114 640 48 640 z"},"5":{"x_min":0,"x_max":591,"ha":591,"o":"m 152 424 q 223 440 276 440 q 329 440 369 429 q 456 405 498 346 q 541 286 541 208 q 541 140 512 88 q 483 35 439 3 q 336 -73 195 -73 q 89 -73 10 -31 l 12 -21 q 16 -21 30 -21 q 45 -21 79 -16 q 113 -10 156 4 q 198 19 234 41 q 269 63 294 98 q 322 138 322 186 q 322 235 289 267 q 253 301 192 301 q 131 301 59 274 l 50 280 l 133 664 l 431 689 q 485 689 510 739 l 520 739 l 478 532 l 171 507 z"}}}
